# xmcd
#
# Track frame offsets:
#	150
#	5199
#	25772
#	37677
#	47142
#	51639
#	60731
#	78886
#	93329
#	102885
#	112477
#	124005
#	134790
#	146870
#	154427
#	161218
#	166735
#	181600
#	191010
#	197181
#	217128
#	227112
#	235281
#	248058
#	254754
#	262203
#	264857
#	273566
#	276208
#	288660
#	300356
#	326158
#	331797
#	336822
#	343625
#
# Disc length: 4786 seconds
#
# Revision: 0
# Processed by: cddbd v1.5.2PL0 Copyright (c) Steve Scherf et al.
# Submitted via: audiograbber 1.83.01
#
DISCID=2412b023
DTITLE=ZZZ - O bittre Zeit - Lagerlieder 1933 bis 1945 - CD 1 
DYEAR=1900
DGENRE=Deutsch
TTITLE0=Aleksander Kuliewicz - Wir sind die Moorsoldaten
TTITLE1=Ehemalige politische Häftlinge der KZ im Emsland - Esterwegen
TTITLE2=Ehemalige politische Häftlinge der KZ im Emsland - Den Spaten geschulte
TTITLE2=rt
TTITLE3=Ehemalige politische Häftlinge der KZ im Emsland - Was uns auch begegne
TTITLE3=t hier
TTITLE4=Ehemalige politische Häftlinge der KZ im Emsland - Kamerad, du gehst
TTITLE5=Ehemalige politische Häftlinge des KZ Sachsenhausen - Im Walde von Sach
TTITLE5=senhausen
TTITLE6=Ehemalige politische Häftlinge des KZ Sachsenhausen - Auf, Jungens, auf
TTITLE6=!
TTITLE7=Ehemalige politische Häftlinge des KZ Sachsenhausen - Lied der Alten
TTITLE8=Ehemalige politische Häftlinge des KZ Sachsenhausen - Wie lange es auch
TTITLE8=noch dauern mag
TTITLE9=Aleksander Kuliewicz - Kartoszki!rack 10
TTITLE10=Aleksander Kuliewicz - Heil, sachsenhausen!
TTITLE11=Aleksander Kuliewicz - W Auschwitzlager gdy meszkalem
TTITLE12=Aleksander Kuliewicz - Kolysanka Birkenau
TTITLE13=Stanislaw Maslo - Ciagle widze cie
TTITLE14=Eva Lippold - Alles fügt sich und erfüllt sich!
TTITLE15=Eva Lippold - Singt ein Vogel
TTITLE16=Eva Lippold - Wiegenlied
TTITLE17=Eva Lippold - Bittre Zeit
TTITLE18=Wolfgand Szepansky - Kameraden laßt uns singen
TTITLE19=kurt Hahn - Dachaulied
TTITLE20=Aleksander Kuliewicz - Song von der Kuhle
TTITLE21=Aleksander Kuliewicz - Die lebenden Steine
TTITLE22=Erich Fried - Buchenwaldlied
TTITLE23=Jefrosinia Tkacova - Ravensbrücklied
TTITLE24=Gisela Söhnheim and Hetty Voute - Het Kapo Lied
TTITLE25=Gisela Söhnheim and Hetty Voute - Onze Luis heeft neten gekregen
TTITLE26=Gisela Söhnheim and Hetty Voute - De Tommies kwamen met reuze wart
TTITLE27=Gisela Söhnheim and Hetty Voute - Wij laten de Moed net zaken
TTITLE28=Gisela Söhnheim and Hetty Voute - Als wij weer zijn thuisgekomen
TTITLE29=Gisela Söhnheim and Hetty Voute - De rode Krus Bussen
TTITLE30=Louis de Wijze - Auf der Heide
TTITLE31=Louis de Wijze - wenn ein Paketchen kommt
TTITLE32=Louis de Wijze - Opium
TTITLE33=Louis de Wijze - Die Postkutsche (immer langsam, immer langsam)
TTITLE34=Johnny and Jones - Westerbork-Serenade
EXTD=
EXTT0=
EXTT1=
EXTT2=
EXTT3=
EXTT4=
EXTT5=
EXTT6=
EXTT7=
EXTT8=
EXTT9=
EXTT10=
EXTT11=
EXTT12=
EXTT13=
EXTT14=
EXTT15=
EXTT16=
EXTT17=
EXTT18=
EXTT19=
EXTT20=
EXTT21=
EXTT22=
EXTT23=
EXTT24=
EXTT25=
EXTT26=
EXTT27=
EXTT28=
EXTT29=
EXTT30=
EXTT31=
EXTT32=
EXTT33=
EXTT34=
PLAYORDER=
